<svg height="512pt" viewBox="-22 0 512 512.002" width="512pt" xmlns="http://www.w3.org/2000/svg"><path d="m465.5625 255.097656-49.363281-43.183594c-1.820313-1.59375-4.160157-2.472656-6.582031-2.472656h-7.4375v-66.679687c1.515624-.386719 2.929687-1.125 4.125-2.167969l49.359374-43.1875c2.171876-1.898438 3.417969-4.644531 3.417969-7.527344 0-2.882812-1.246093-5.625-3.417969-7.523437l-49.359374-43.1875c-1.824219-1.597657-4.164063-2.476563-6.585938-2.476563h-115.140625v-26.691406c0-5.523438-4.476563-10-10-10h-61.996094c-5.523437 0-10 4.476562-10 10v26.691406h-135.679687c-5.523438 0-10 4.476563-10 10v76.683594c-1.515625.382812-2.929688 1.121094-4.125 2.164062l-49.363282 43.191407c-2.167968 1.898437-3.414062 4.640625-3.414062 7.523437 0 2.886719 1.246094 5.628906 3.414062 7.527344l49.363282 43.1875c1.824218 1.59375 4.164062 2.472656 6.585937 2.472656h143.21875v155.609375c-21.523437 7.582031-39.917969 22.542969-51.84375 42.8125-1.21875-.0625-2.433593-.09375-3.640625-.09375-40.929687 0-74.230468 33.300781-74.230468 74.234375 0 5.519532 4.476562 10 10 10h320.964843c5.09375 0 9.375-3.832031 9.9375-8.894531.347657-3.121094.523438-6.214844.523438-9.199219 0-45.394531-36.929688-82.324218-82.324219-82.324218-7.253906 0-14.398438.9375-21.324219 2.792968-7.421875-8.773437-16.269531-16.101562-26.066406-21.742187v-76.824219h125.035156c2.421875 0 4.765625-.878906 6.585938-2.472656l49.363281-43.1875c2.167969-1.898438 3.414062-4.640625 3.414062-7.527344 0-2.882812-1.246093-5.628906-3.414062-7.527344zm-242.980469-235.097656h41.996094v16.691406h-41.996094zm-145.679687 36.691406h319.058594l37.933593 33.1875-37.933593 33.1875h-319.058594zm-51.714844 119.5625 37.929688-33.1875h319.0625v66.375h-319.0625zm273.773438 255.613282c2.628906 3.621093 7.34375 5.054687 11.539062 3.515624 6.863281-2.519531 14.085938-3.796874 21.472656-3.796874 33.726563 0 61.28125 26.929687 62.292969 60.414062h-300.472656c4.703125-25.144531 26.816406-44.230469 53.304687-44.230469 2.578125 0 5.214844.191407 7.839844.574219 4.261719.621094 8.453125-1.574219 10.378906-5.433594 13.371094-26.804687 40.261719-43.457031 70.171875-43.457031 25.015625-.003906 48.742188 12.117187 63.472657 32.414063zm-34.382813-47.980469c-9.324219-2.90625-19.125-4.4375-29.089844-4.4375-4.359375 0-8.667969.285156-12.90625.835937v-64.472656h41.996094zm141.28125-88.074219h-183.277344v-66.371094h183.277344l37.929687 33.183594zm0 0"/><path d="m376.128906 99.878906c-.648437 0-1.308594-.070312-1.960937-.199218-.628907-.128907-1.257813-.320313-1.867188-.570313-.601562-.25-1.183593-.558594-1.722656-.917969-.550781-.363281-1.058594-.78125-1.519531-1.242187-.460938-.460938-.878906-.96875-1.25-1.519531-.359375-.539063-.671875-1.121094-.921875-1.730469-.25-.597657-.4375-1.230469-.566407-1.871094-.132812-.636719-.191406-1.296875-.191406-1.949219 0-.648437.058594-1.308594.191406-1.949218.128907-.640626.316407-1.269532.566407-1.878907.25-.601562.5625-1.179687.921875-1.722656.371094-.546875.789062-1.058594 1.25-1.519531.460937-.457032.96875-.878906 1.519531-1.25.539063-.347656 1.121094-.660156 1.722656-.910156.609375-.25 1.238281-.449219 1.867188-.570313 1.292969-.257813 2.621093-.257813 3.910156 0 .640625.121094 1.269531.320313 1.871094.570313.609375.25 1.1875.5625 1.730469.910156.550781.371094 1.058593.792968 1.519531 1.25.460937.460937.878906.972656 1.238281 1.519531.359375.539063.671875 1.121094.921875 1.722656.25.609375.441406 1.238281.570313 1.878907.128906.640624.199218 1.300781.199218 1.949218 0 .652344-.070312 1.3125-.199218 1.949219-.132813.640625-.320313 1.273437-.570313 1.871094-.25.609375-.558594 1.191406-.921875 1.730469-.359375.550781-.777344 1.058593-1.238281 1.519531-.460938.460937-.96875.878906-1.519531 1.242187-.539063.359375-1.121094.667969-1.730469.917969-.601563.25-1.230469.441406-1.871094.570313-.640625.128906-1.300781.199218-1.949219.199218zm0 0"/><path d="m336.246094 99.878906h-231.089844c-5.519531 0-10-4.476562-10-10 0-5.523437 4.480469-10 10-10h231.089844c5.519531 0 10 4.476563 10 10 0 5.523438-4.480469 10-10 10zm0 0"/><path d="m78.160156 186.25c-.652344 0-1.3125-.058594-1.960937-.191406-.640625-.128906-1.269531-.320313-1.871094-.570313-.597656-.25-1.179687-.558593-1.730469-.917969-.539062-.371093-1.046875-.78125-1.519531-1.242187-1.859375-1.867187-2.929687-4.4375-2.929687-7.066406 0-2.640625 1.070312-5.210938 2.929687-7.082031.472656-.460938.980469-.878907 1.519531-1.238282.550782-.363281 1.132813-.671875 1.730469-.921875.601563-.25 1.230469-.441406 1.871094-.570312 3.25-.660157 6.699219.410156 9.03125 2.730469.457031.460937.878906.980468 1.238281 1.519531.359375.550781.667969 1.128906.917969 1.730469.25.601562.441406 1.230468.570312 1.871093.132813.648438.199219 1.300781.199219 1.960938 0 2.628906-1.066406 5.199219-2.929688 7.066406-1.867187 1.863281-4.4375 2.921875-7.066406 2.921875zm0 0"/><path d="m349.125 186.253906h-231.085938c-5.523437 0-10-4.476562-10-10 0-5.523437 4.476563-10 10-10h231.085938c5.523438 0 10 4.476563 10 10 0 5.523438-4.476562 10-10 10zm0 0"/><path d="m282.117188 272.628906h-24.125c-5.523438 0-10-4.480468-10-10 0-5.523437 4.476562-10 10-10h24.125c5.519531 0 10 4.476563 10 10 0 5.519532-4.480469 10-10 10zm0 0"/><path d="m382.003906 272.628906h-49.457031c-5.523437 0-10-4.480468-10-10 0-5.523437 4.476563-10 10-10h49.457031c5.523438 0 10 4.476563 10 10 0 5.519532-4.476562 10-10 10zm0 0"/></svg>