<?xml version="1.0" encoding="iso-8859-1"?>
<!-- Generator: Adobe Illustrator 19.0.0, SVG Export Plug-In . SVG Version: 6.00 Build 0)  -->
<svg version="1.1" id="Capa_1" xmlns="http://www.w3.org/2000/svg" xmlns:xlink="http://www.w3.org/1999/xlink" x="0px" y="0px"
	 viewBox="0 0 512 512" style="enable-background:new 0 0 512 512;" xml:space="preserve">
<path style="fill:#72D8FF;" d="M289,76h-74c-8.837,0-16,7.163-16,16v24h106V92C305,83.163,297.837,76,289,76z"/>
<path style="fill:#C9F3FF;" d="M438,242.402l-32.424-75.655c-13.089-30.542-43.121-50.345-76.35-50.345H182.773
	c-33.229,0-63.26,19.803-76.35,50.345L74,242.402"/>
<path style="fill:#FFC66C;" d="M149.069,402.284h229.99h64.268L502,402.402v-64.621c0-52.676-42.703-95.379-95.379-95.379H264.064
	h-0.015h-158.67C52.703,242.402,10,285.105,10,337.781v64.621l68.243-0.118H149.069z"/>
<path style="fill:#FFFFFF;" d="M484.31,282.44h-20.117c-11.046,0-20,8.954-20,20l0,0c0,11.046,8.954,20,20,20h36.572
	C498.383,307.703,492.628,294.095,484.31,282.44z"/>
<g>
	<path style="fill:#686C83;" d="M44.935,400c0-39.764,32.236-72,72-72s72,32.236,72,72"/>
	<path style="fill:#686C83;" d="M321.194,400c0-39.764,32.236-72,72-72s72,32.236,72,72"/>
</g>
<g>
	<circle style="fill:#898998;" cx="116.94" cy="400" r="36"/>
	<circle style="fill:#898998;" cx="393.19" cy="400" r="36"/>
</g>
<path d="M510.647,320.934c-0.005-0.03-0.005-0.061-0.01-0.091l-0.006-0.002c-2.64-16.266-9.011-31.296-18.212-44.176l0.03-0.035
	c-0.175-0.245-0.369-0.471-0.563-0.697c-11.164-15.348-26.36-27.581-44.024-35.122c-0.128-0.791-0.342-1.579-0.671-2.349
	l-32.424-75.655c-14.685-34.265-48.262-56.406-85.541-56.406H315V92c0-14.336-11.664-26-26-26h-74c-14.336,0-26,11.664-26,26v14.402
	h-6.227c-37.279,0-70.856,22.141-85.541,56.405l-32.424,75.655c-0.33,0.77-0.543,1.558-0.671,2.349
	C26.469,256.893,0,294.303,0,337.781v64.621c0,5.523,4.477,10,10,10h62.647C78.075,431.759,95.868,446,116.935,446
	s38.859-14.241,44.288-33.598h187.684C354.334,431.759,372.126,446,393.193,446s38.859-14.241,44.288-33.598H502
	c5.523,0,10-4.477,10-10v-64.621C512,332.047,511.533,326.422,510.647,320.934z M209,92c0-3.309,2.691-6,6-6h74c3.309,0,6,2.691,6,6
	v14h-86V92z M478.914,292.44c3.893,6.184,7.031,12.888,9.247,20h-23.968c-5.514,0-10-4.486-10-10s4.486-10,10-10H478.914z
	 M396.39,170.698l27.02,63.047c-5.469-0.879-11.076-1.343-16.789-1.343H266.127v-106h63.1
	C358.495,126.402,384.856,143.785,396.39,170.698z M115.615,170.686c11.529-26.901,37.89-44.284,67.158-44.284h63.354v106H105.379
	c-5.713,0-11.32,0.464-16.789,1.343L115.615,170.686z M71.573,392.402H55.417C59.177,361.788,85.321,338,116.935,338
	s57.758,23.788,61.518,54.402h-16.156C158.662,370.642,139.71,354,116.935,354S75.207,370.642,71.573,392.402z M116.935,426
	c-14.336,0-26-11.664-26-26s11.664-26,26-26s26,11.664,26,26S131.271,426,116.935,426z M393.193,354
	c-22.775,0-41.728,16.642-45.361,38.402h-16.156C335.436,361.788,361.58,338,393.193,338s57.758,23.788,61.518,54.402h-16.156
	C434.921,370.642,415.969,354,393.193,354z M393.193,426c-14.336,0-26-11.664-26-26s11.664-26,26-26s26,11.664,26,26
	S407.53,426,393.193,426z M492,392.402h-17.172C470.98,350.737,435.845,318,393.193,318s-77.787,32.737-81.635,74.402h-45.432V328
	c0-5.523-4.477-10-10-10s-10,4.477-10,10v64.402h-47.558C194.721,350.737,159.586,318,116.935,318S39.148,350.737,35.3,392.402H20
	v-54.621c0-47.078,38.301-85.378,85.379-85.378h301.242c20.944,0,40.139,7.594,55.009,20.155
	c-15.346,1.306-27.437,14.205-27.437,29.883c0,16.542,13.458,30,30,30h27.623c0.11,1.768,0.184,3.546,0.184,5.341L492,392.402
	L492,392.402z"/>
<path d="M321.255,279h-22.873c-5.523,0-10,4.477-10,10s4.477,10,10,10h22.873c5.523,0,10-4.477,10-10S326.778,279,321.255,279z"/>
<path d="M128,279h-18.437c-5.523,0-10,4.477-10,10s4.477,10,10,10H128c5.523,0,10-4.477,10-10S133.523,279,128,279z"/>
<path d="M256.13,279c-2.64,0-5.21,1.07-7.07,2.93c-1.87,1.86-2.93,4.44-2.93,7.07s1.06,5.21,2.93,7.07
	c1.86,1.86,4.44,2.93,7.07,2.93s5.2-1.07,7.07-2.93c1.86-1.86,2.93-4.44,2.93-7.07s-1.07-5.21-2.93-7.07
	C261.34,280.07,258.76,279,256.13,279z"/>
<g>
</g>
<g>
</g>
<g>
</g>
<g>
</g>
<g>
</g>
<g>
</g>
<g>
</g>
<g>
</g>
<g>
</g>
<g>
</g>
<g>
</g>
<g>
</g>
<g>
</g>
<g>
</g>
<g>
</g>
</svg>
