<?xml version="1.0" encoding="iso-8859-1"?>
<!-- Generator: Adobe Illustrator 19.0.0, SVG Export Plug-In . SVG Version: 6.00 Build 0)  -->
<svg version="1.1" id="Capa_1" xmlns="http://www.w3.org/2000/svg" xmlns:xlink="http://www.w3.org/1999/xlink" x="0px" y="0px"
	 viewBox="0 0 512.002 512.002" style="enable-background:new 0 0 512.002 512.002;" xml:space="preserve">
<path style="fill:#4DBAF6;" d="M331.495,50H180.506c-37.834,0-68.505,30.671-68.505,68.505v182.989
	c0,37.834,30.671,68.505,68.505,68.505h150.989c37.834,0,68.505-30.671,68.505-68.505V118.505C400.001,80.671,369.33,50,331.495,50z
	"/>
<rect x="112" y="130" style="fill:#C9F3FF;" width="288" height="144"/>
<polygon style="fill:#B3B6C3;" points="74.261,502 163.501,370 348.501,370 437.741,502 "/>
<g>
	<polygon style="fill:#898998;" points="437.741,502 348.501,370 373.48,355.626 502.001,484.146 502.001,502 	"/>
	<polygon style="fill:#898998;" points="74.261,502 163.501,370 138.521,355.626 10.001,484.146 10.001,502 	"/>
	<polygon style="fill:#898998;" points="410.656,461.938 101.345,461.938 129.251,421.938 382.751,421.938 	"/>
</g>
<g>
	<circle style="fill:#FFFFFF;" cx="189.54" cy="322" r="19"/>
	<circle style="fill:#FFFFFF;" cx="322.46" cy="322" r="19"/>
</g>
<path d="M189.543,351c15.99,0,29-13.009,29-29s-13.01-29-29-29s-29,13.009-29,29S173.552,351,189.543,351z M189.543,313
	c4.963,0,9,4.038,9,9s-4.037,9-9,9s-9-4.038-9-9S184.58,313,189.543,313z"/>
<path d="M322.459,351c15.99,0,29-13.009,29-29s-13.01-29-29-29s-29,13.009-29,29S306.468,351,322.459,351z M322.459,313
	c4.963,0,9,4.038,9,9s-4.037,9-9,9s-9-4.038-9-9S317.496,313,322.459,313z"/>
<path d="M223.501,100h64c5.522,0,10-4.477,10-10s-4.478-10-10-10h-64c-5.522,0-10,4.477-10,10S217.978,100,223.501,100z"/>
<path d="M204.22,213.28c-1.87-1.86-4.45-2.92-7.07-2.92c-2.64,0-5.21,1.06-7.08,2.92c-1.859,1.87-2.93,4.45-2.93,7.08
	s1.07,5.2,2.93,7.07c1.87,1.86,4.44,2.93,7.08,2.93c2.62,0,5.2-1.07,7.07-2.93c1.86-1.87,2.92-4.44,2.92-7.07
	S206.081,215.15,204.22,213.28z"/>
<path d="M509.07,477.07c-1.859-1.86-4.439-2.92-7.069-2.92s-5.21,1.06-7.07,2.92c-1.86,1.87-2.93,4.44-2.93,7.08
	c0,2.63,1.069,5.2,2.93,7.07c1.86,1.86,4.44,2.93,7.07,2.93s5.21-1.07,7.069-2.93c1.86-1.86,2.931-4.44,2.931-7.07
	C512.001,481.51,510.93,478.94,509.07,477.07z"/>
<path d="M387.955,355.959C401.588,341.831,410,322.632,410,301.495v-182.99C410,75.217,374.783,40,331.495,40H266V10
	c0-5.523-4.478-10-10-10s-10,4.477-10,10v30h-65.495C137.217,40,102,75.217,102,118.505v182.989
	c0,21.137,8.412,40.336,22.045,54.464L2.929,477.075c-3.905,3.905-3.905,10.237,0,14.142c1.953,1.953,4.512,2.929,7.071,2.929
	s5.119-0.977,7.071-2.929l122.661-122.66c2.998,1.83,6.135,3.451,9.379,4.872l-56.045,82.9c-0.008,0.012-0.016,0.024-0.024,0.036
	L65.976,496.4c-3.094,4.575-1.892,10.792,2.684,13.885c1.717,1.161,3.664,1.717,5.592,1.717c3.209,0,6.36-1.542,8.293-4.4
	l24.11-35.663h298.691l24.11,35.663c1.933,2.859,5.084,4.4,8.293,4.4c1.928,0,3.875-0.556,5.592-1.717
	c4.575-3.093,5.777-9.31,2.684-13.885l-27.066-40.035c-0.008-0.012-0.016-0.024-0.024-0.036l-56.045-82.9
	c3.244-1.421,6.381-3.042,9.379-4.872l98.962,98.963c1.953,1.953,4.512,2.929,7.071,2.929s5.118-0.976,7.071-2.929
	c3.905-3.905,3.905-10.237,0-14.143L387.955,355.959z M122.001,140h141.357l-40.179,40.179c-3.905,3.905-3.905,10.237,0,14.143
	c1.953,1.953,4.512,2.929,7.071,2.929s5.118-0.976,7.071-2.929L291.643,140h49.215L218.929,261.929
	c-0.632,0.632-1.151,1.333-1.578,2.071h-95.35V140z M369.143,140H390v124H245.143L369.143,140z M180.505,60h150.99
	C363.755,60,390,86.246,390,118.505V120h-24.995c-0.003,0-0.007,0-0.01,0h-77.49c-0.003,0-0.007,0-0.01,0H122.001v-1.495
	C122.001,86.246,148.246,60,180.505,60z M122.001,284h268v17.495c0,32.26-26.245,58.505-58.505,58.505h-150.99
	c-32.26,0-58.505-26.246-58.505-58.505C122.001,301.495,122.001,284,122.001,284z M120.176,451.938l13.521-20h244.606l13.521,20
	H120.176z M364.782,411.938H147.219l22.136-32.743c3.645,0.521,7.364,0.806,11.15,0.806h150.99c3.786,0,7.506-0.285,11.15-0.806
	L364.782,411.938z"/>
<g>
</g>
<g>
</g>
<g>
</g>
<g>
</g>
<g>
</g>
<g>
</g>
<g>
</g>
<g>
</g>
<g>
</g>
<g>
</g>
<g>
</g>
<g>
</g>
<g>
</g>
<g>
</g>
<g>
</g>
</svg>
